<?xml version="1.0" encoding="UTF-8" standalone="no"?>
<!-- Created with Inkscape (http://www.inkscape.org/) -->

<svg
   preserveAspectRatio="none"
   width="47.199402mm"
   height="47.289612mm"
   viewBox="0 0 47.199402 47.289612"
   version="1.1"
   id="svg5"
   xml:space="preserve"
   inkscape:export-filename=".\bitmap.svg"
   inkscape:export-xdpi="96"
   inkscape:export-ydpi="96"
   xmlns:inkscape="http://www.inkscape.org/namespaces/inkscape"
   xmlns:sodipodi="http://sodipodi.sourceforge.net/DTD/sodipodi-0.dtd"
   xmlns="http://www.w3.org/2000/svg"
   xmlns:svg="http://www.w3.org/2000/svg"><sodipodi:namedview
     id="namedview7"
     pagecolor="#ffffff"
     bordercolor="#000000"
     borderopacity="0.25"
     inkscape:showpageshadow="2"
     inkscape:pageopacity="0.0"
     inkscape:pagecheckerboard="0"
     inkscape:deskcolor="#d1d1d1"
     inkscape:document-units="mm"
     showgrid="false"
     inkscape:zoom="1.829812"
     inkscape:cx="283.63569"
     inkscape:cy="315.33294"
     inkscape:window-width="3440"
     inkscape:window-height="1387"
     inkscape:window-x="-8"
     inkscape:window-y="22"
     inkscape:window-maximized="1"
     inkscape:current-layer="layer1" /><defs
     id="defs2" /><g
     inkscape:groupmode="layer"
     id="layer2"
     inkscape:label="Capa 2"
     style="display:inline"
     transform="translate(-140.83802,-17.220624)"><path
       style="display:inline;fill:#000000;stroke-width:0.264583"
       d="m 149.07474,64.142498 c -4.8259,-1.047043 -8.23671,-4.039999 -8.23671,-7.227538 0,-0.615058 1.73067,-8.882075 3.84593,-18.371153 4.37808,-19.640105 3.68106,-17.795326 7.26657,-19.232294 3.70626,-1.485359 5.86581,-1.911535 10.41,-2.054354 4.7998,-0.150852 7.21846,0.145708 10.27913,1.260361 3.61404,1.316186 5.92129,3.22721 7.07648,5.861242 0.27632,0.630032 2.35792,8.825045 4.6258,18.211138 4.72888,19.571483 4.56386,17.439727 1.51001,19.507023 -2.32529,1.57409 -4.54052,2.212649 -8.26597,2.382736 -5.03179,0.22973 -8.63852,-0.903554 -10.44639,-3.282399 -0.65007,-0.855377 -0.93565,-1.630214 -1.26774,-3.439583 -0.60499,-3.296307 -0.68229,-3.092527 1.317,-3.471791 1.77855,-0.337387 3.04921,-0.855914 3.87783,-1.582442 0.51901,-0.45507 0.54665,-0.576294 0.24113,-1.057679 -0.16621,-0.261896 -0.54432,-0.190667 -1.69929,0.320119 -3.71116,1.64125 -9.50651,1.483214 -12.32276,-0.336034 -0.49391,-0.319064 -0.65994,-0.331113 -0.82746,-0.06005 -0.78832,1.27553 1.88107,2.682764 5.67869,2.993663 0.78315,0.06411 0.79762,0.09326 1.08359,2.181648 0.15942,1.164167 0.37997,2.557534 0.49013,3.096369 0.17662,0.863959 0.11307,1.060524 -0.53787,1.663798 -1.05722,0.979797 -3.78915,2.217594 -5.86563,2.657628 -2.22281,0.471046 -6.01106,0.4617 -8.23247,-0.02032 z m 16.27124,-23.79482 c 0.18651,-0.486023 -0.64074,-5.259718 -1.11306,-6.422977 -0.26561,-0.654177 -0.51061,-0.859896 -1.0241,-0.859896 -0.4655,0 -0.67571,0.143685 -0.67738,0.463021 -0.005,0.92103 1.13538,6.556549 1.39182,6.879166 0.36036,0.453338 1.24007,0.416661 1.42272,-0.05931 z"
       id="path495"
       inkscape:label="path418"
       sodipodi:nodetypes="cssssssssssssssssssssssccssscsss" /></g></svg>
