<?xml version="1.0" encoding="UTF-8" standalone="no"?>
<!-- Created with Inkscape (http://www.inkscape.org/) -->

<svg
   preserveAspectRatio="none"
   width="39.367844mm"
   height="46.25309mm"
   viewBox="0 0 39.367844 46.25309"
   version="1.1"
   id="svg5"
   xml:space="preserve"
   inkscape:export-filename=".\bitmap.svg"
   inkscape:export-xdpi="96"
   inkscape:export-ydpi="96"
   xmlns:inkscape="http://www.inkscape.org/namespaces/inkscape"
   xmlns:sodipodi="http://sodipodi.sourceforge.net/DTD/sodipodi-0.dtd"
   xmlns="http://www.w3.org/2000/svg"
   xmlns:svg="http://www.w3.org/2000/svg"><sodipodi:namedview
     id="namedview7"
     pagecolor="#ffffff"
     bordercolor="#000000"
     borderopacity="0.25"
     inkscape:showpageshadow="2"
     inkscape:pageopacity="0.0"
     inkscape:pagecheckerboard="0"
     inkscape:deskcolor="#d1d1d1"
     inkscape:document-units="mm"
     showgrid="false"
     inkscape:zoom="1.829812"
     inkscape:cx="283.63569"
     inkscape:cy="315.33294"
     inkscape:window-width="3440"
     inkscape:window-height="1387"
     inkscape:window-x="-8"
     inkscape:window-y="22"
     inkscape:window-maximized="1"
     inkscape:current-layer="layer1" /><defs
     id="defs2" /><g
     inkscape:groupmode="layer"
     id="layer2"
     inkscape:label="Capa 2"
     style="display:inline"
     transform="translate(-145.63848,-96.785298)"><path
       style="display:inline;fill:#000000;stroke-width:0.264583"
       d="m 153.3054,142.83446 c -3.21867,-0.53722 -5.42401,-2.07449 -6.70345,-4.67276 l -0.86913,-1.76502 -0.078,-18.01535 c -0.0503,-11.61783 0.0164,-18.26361 0.18778,-18.714448 0.34998,-0.920515 1.99634,-1.73927 4.50386,-2.239817 1.59359,-0.318109 5.07542,-0.424098 17.10231,-0.520597 l 15.10135,-0.121171 0.68651,1.543447 c 0.93955,2.112376 1.34893,4.457686 1.20434,6.899576 -0.15056,2.54291 -0.85714,4.22404 -2.20904,5.2559 l -1.00234,0.76505 -8.57582,0.1323 c -8.10885,0.12508 -8.5963,0.16033 -8.95197,0.64723 -0.20688,0.28322 -0.28216,0.60894 -0.16729,0.72381 0.11488,0.11488 4.01401,0.24034 8.66474,0.27881 l 8.45587,0.0699 0.62995,1.5875 c 1.15113,2.90088 1.03361,7.70889 -0.24992,10.22481 l -0.49864,0.97741 -7.61225,0.10766 c -7.92929,0.11213 -9.59956,0.32786 -10.22584,1.32071 -0.5705,0.90444 0.14205,1.09017 2.25703,0.58831 1.54235,-0.36598 3.59358,-0.48761 9.92686,-0.58859 l 7.9828,-0.1273 0.68451,1.35082 c 1.95565,3.8593 1.9406,9.38906 -0.0356,13.07665 l -0.73951,1.37993 -14.02292,0.0364 c -7.7126,0.02 -14.66338,-0.0705 -15.44617,-0.20118 z"
       id="path493"
       inkscape:label="path418"
       sodipodi:nodetypes="sscscsscssscsssccsscsssscsscsss" /></g></svg>
