<?xml version="1.0" encoding="UTF-8" standalone="no"?>
<!-- Created with Inkscape (http://www.inkscape.org/) -->

<svg
   preserveAspectRatio="none"
   width="44.684837mm"
   height="47.478172mm"
   viewBox="0 0 44.684837 47.478172"
   version="1.1"
   id="svg5"
   xml:space="preserve"
   inkscape:export-filename=".\bitmap.svg"
   inkscape:export-xdpi="96"
   inkscape:export-ydpi="96"
   xmlns:inkscape="http://www.inkscape.org/namespaces/inkscape"
   xmlns:sodipodi="http://sodipodi.sourceforge.net/DTD/sodipodi-0.dtd"
   xmlns="http://www.w3.org/2000/svg"
   xmlns:svg="http://www.w3.org/2000/svg"><sodipodi:namedview
     id="namedview7"
     pagecolor="#ffffff"
     bordercolor="#000000"
     borderopacity="0.25"
     inkscape:showpageshadow="2"
     inkscape:pageopacity="0.0"
     inkscape:pagecheckerboard="0"
     inkscape:deskcolor="#d1d1d1"
     inkscape:document-units="mm"
     showgrid="false"
     inkscape:zoom="1.829812"
     inkscape:cx="283.63569"
     inkscape:cy="315.33294"
     inkscape:window-width="3440"
     inkscape:window-height="1387"
     inkscape:window-x="-8"
     inkscape:window-y="22"
     inkscape:window-maximized="1"
     inkscape:current-layer="layer1" /><defs
     id="defs2" /><g
     inkscape:groupmode="layer"
     id="layer2"
     inkscape:label="Capa 2"
     transform="translate(-13.60319,-17.045875)"><path
       style="display:inline;fill:#000000;stroke-width:0.264583"
       d="M 19.665276,64.143027 C 17.903693,63.649146 16.331918,62.755259 15.21336,61.611171 13.502638,59.861402 13.554141,60.58499 13.633673,39.417567 l 0.07206,-19.179621 1.455209,-0.872596 c 2.648794,-1.588312 4.651438,-2.043158 8.995833,-2.043158 3.017404,0 4.128934,0.102037 5.206418,0.47794 3.200212,1.116461 4.84894,3.197054 5.052989,6.376553 0.119565,1.863069 0.0904,1.972432 -1.364448,5.116163 -0.817645,1.766819 -1.486625,3.442805 -1.486625,3.724412 0,0.565935 0.645694,1.228706 0.989835,1.016015 0.120597,-0.07453 1.762921,-3.555462 3.64961,-7.735401 l 3.430346,-7.599889 1.336564,-0.617111 c 1.921071,-0.886988 4.990518,-1.261247 7.349943,-0.896182 3.798819,0.587776 6.496066,2.373787 7.902924,5.233004 0.808853,1.643865 0.87171,1.959591 0.854589,4.29256 -0.02119,2.888548 -0.514147,4.460803 -2.231814,7.118369 -1.213903,1.878143 -3.831778,4.574292 -5.668518,5.838 l -1.28483,0.883986 -1.219012,-0.436872 c -2.082575,-0.746358 -3.997137,-0.494448 -3.997137,0.525928 0,0.17885 0.625078,0.507436 1.389062,0.730192 2.163723,0.630872 3.530735,1.654241 9.067247,6.787885 3.799981,3.523472 5.154108,4.938033 5.154108,5.38412 0,0.967036 -0.977858,4.522732 -1.548101,5.62923 -0.861751,1.67213 -2.289188,3.119493 -3.921893,3.976634 -2.184505,1.146832 -3.951697,1.493936 -6.837494,1.342988 -2.907837,-0.152098 -5.162514,-1.056846 -7.112106,-2.853917 -1.89248,-1.744427 -2.954909,-3.605882 -5.173547,-9.064437 -1.695585,-4.171683 -2.168945,-5.102921 -2.629183,-5.172374 -1.320302,-0.199242 -1.08989,0.913376 1.454552,7.023767 1.52182,3.654591 1.705999,4.284765 1.636599,5.599625 l -0.0782,1.481596 -1.455208,0.869759 c -2.402255,1.435796 -4.463674,1.956599 -8.202083,2.072206 -2.430677,0.07517 -3.691303,-0.0054 -4.756086,-0.303914 z"
       id="path418"
       inkscape:label="path418"
       sodipodi:nodetypes="csscsssssssscsssssscssssssssssssscssc"
       inkscape:export-filename="path418.svg"
       inkscape:export-xdpi="96"
       inkscape:export-ydpi="96" /></g></svg>
