<?xml version="1.0" encoding="UTF-8" standalone="no"?>
<!-- Created with Inkscape (http://www.inkscape.org/) -->

<svg
   width="97.908066mm"
   height="59.419163mm"
   viewBox="0 0 97.908066 59.419163"
   version="1.1"
   id="svg5"
   xml:space="preserve"
   inkscape:export-filename=".\bitmap.svg"
   inkscape:export-xdpi="96"
   inkscape:export-ydpi="96"
   xmlns:inkscape="http://www.inkscape.org/namespaces/inkscape"
   xmlns:sodipodi="http://sodipodi.sourceforge.net/DTD/sodipodi-0.dtd"
   xmlns="http://www.w3.org/2000/svg"
   xmlns:svg="http://www.w3.org/2000/svg"><sodipodi:namedview
     id="namedview7"
     pagecolor="#ffffff"
     bordercolor="#000000"
     borderopacity="0.25"
     inkscape:showpageshadow="2"
     inkscape:pageopacity="0.0"
     inkscape:pagecheckerboard="0"
     inkscape:deskcolor="#d1d1d1"
     inkscape:document-units="mm"
     showgrid="false"
     inkscape:zoom="1.829812"
     inkscape:cx="283.63569"
     inkscape:cy="315.33294"
     inkscape:window-width="3440"
     inkscape:window-height="1387"
     inkscape:window-x="-8"
     inkscape:window-y="22"
     inkscape:window-maximized="1"
     inkscape:current-layer="layer1" /><defs
     id="defs2" /><g
     inkscape:label="Capa 1"
     inkscape:groupmode="layer"
     id="layer1"
     style="display:inline"
     transform="translate(-49.256658,-32.712733)"><path
       style="fill:#000000;stroke-width:0.264583"
       d="m 146.64809,92.115112 c -0.15426,-10e-4 -19.37578,-0.560972 -34.90296,-0.824968 C 97.909133,91.054903 81.817185,90.643526 80.459137,90.490348 77.659541,90.174571 76.150734,89.130586 69.000025,82.56146 63.730915,77.720898 58.641072,73.220875 58.131728,72.952598 c -1.38158,-0.727696 -1.419923,-0.499499 -1.419923,8.450633 0,10.013373 0.293039,9.319942 -3.881627,9.185285 -2.381313,-0.07681 -2.82986,-0.162652 -3.151589,-0.603146 -0.562614,-0.770303 -0.562551,-55.881814 6.5e-5,-56.651984 0.319102,-0.436822 0.769827,-0.527056 3.015371,-0.603676 1.601535,-0.05465 2.855584,0.02519 3.187705,0.202937 1.068099,0.571628 1.138666,1.733236 1.092573,17.984867 -0.02418,8.527399 -0.03361,15.653192 -0.02095,15.835093 0.04222,0.606298 1.025888,0.340754 1.698403,-0.458486 0.365244,-0.434068 2.112803,-3.083208 3.883464,-5.886979 1.77066,-2.803771 3.920643,-6.169327 4.77774,-7.479014 0.857094,-1.309688 1.678609,-2.619375 1.825585,-2.910417 0.146979,-0.291041 1.689978,-2.731823 3.428889,-5.423958 1.73891,-2.692135 3.93292,-6.144948 4.87558,-7.672916 2.603923,-4.220737 2.407335,-4.101042 6.735495,-4.101042 3.164069,0 3.623629,0.05489 3.698839,0.441789 0.0474,0.243932 -2.677161,4.450479 -6.08369,9.392708 -3.393268,4.923006 -6.368002,9.248576 -6.610508,9.612378 -0.242507,0.363802 -3.005394,4.352395 -6.139746,8.863541 -3.28262,4.724537 -5.702681,8.459176 -5.70792,8.808458 -0.0114,0.761087 -0.207153,0.566851 6.699075,6.647502 6.407573,5.641605 7.783756,6.628964 10.725867,7.695399 2.827642,1.024942 11.993037,2.679485 19.739914,3.563461 14.82801,1.691984 24.3876,2.517129 39.92902,3.446512 3.47981,0.208095 6.45042,0.501846 6.60135,0.652783 0.26163,0.261631 0.14336,0.174331 -0.38262,0.170786 z"
       id="path179"
       inkscape:export-filename="kaze logo.svg"
       inkscape:export-xdpi="96"
       inkscape:export-ydpi="96"
       sodipodi:nodetypes="sssssssssssscssssssssssssssssss" /></g></svg>
