<?xml version="1.0" encoding="UTF-8" standalone="no"?>
<!-- Created with Inkscape (http://www.inkscape.org/) -->

<svg
   preserveAspectRatio="none"
   width="40.304497mm"
   height="46.302544mm"
   viewBox="0 0 40.304497 46.302544"
   version="1.1"
   id="svg5"
   xml:space="preserve"
   inkscape:export-filename=".\bitmap.svg"
   inkscape:export-xdpi="96"
   inkscape:export-ydpi="96"
   xmlns:inkscape="http://www.inkscape.org/namespaces/inkscape"
   xmlns:sodipodi="http://sodipodi.sourceforge.net/DTD/sodipodi-0.dtd"
   xmlns="http://www.w3.org/2000/svg"
   xmlns:svg="http://www.w3.org/2000/svg"><sodipodi:namedview
     id="namedview7"
     pagecolor="#ffffff"
     bordercolor="#000000"
     borderopacity="0.25"
     inkscape:showpageshadow="2"
     inkscape:pageopacity="0.0"
     inkscape:pagecheckerboard="0"
     inkscape:deskcolor="#d1d1d1"
     inkscape:document-units="mm"
     showgrid="false"
     inkscape:zoom="1.829812"
     inkscape:cx="283.63569"
     inkscape:cy="315.33294"
     inkscape:window-width="3440"
     inkscape:window-height="1387"
     inkscape:window-x="-8"
     inkscape:window-y="22"
     inkscape:window-maximized="1"
     inkscape:current-layer="layer1" /><defs
     id="defs2" /><g
     inkscape:groupmode="layer"
     id="layer2"
     inkscape:label="Capa 2"
     style="display:inline"
     transform="translate(-15.190018,-96.829534)"><path
       style="display:inline;fill:#000000;stroke-width:0.264583"
       d="m 18.418416,142.40396 c -0.870182,-0.92294 -2.060051,-3.44282 -2.583849,-5.47201 -0.521266,-2.01939 -0.798819,-5.98633 -0.555244,-7.93585 0.183213,-1.46639 0.295598,-1.64306 3.01253,-4.73577 1.55222,-1.76692 5.037431,-5.47676 7.744913,-8.2441 2.707483,-2.76735 4.870452,-5.18037 4.806598,-5.36227 -0.278017,-0.79199 -1.463538,-0.30882 -3.101518,1.26405 l -1.660797,1.59478 -3.930663,-0.0734 -3.930664,-0.0734 -0.597667,-1.05833 c -1.685176,-2.98406 -2.31167,-7.09388 -1.564481,-10.26308 0.49635,-2.105273 0.930743,-3.015061 2.046144,-4.285434 l 0.816211,-0.929614 h 16.413737 c 15.316091,0 16.43825,0.03096 16.780314,0.463021 0.201618,0.254662 0.722056,1.146808 1.156534,1.98255 2.150276,4.136177 2.397037,10.588497 0.541636,14.162677 -0.756592,1.45747 -3.683082,4.99983 -6.730368,8.14674 l -2.684378,2.77214 -3.042708,0.25559 c -1.673489,0.14057 -3.757083,0.44088 -4.630208,0.66736 -1.727833,0.44817 -2.906792,1.34709 -2.539969,1.93665 0.182814,0.29382 0.611812,0.25896 2.439231,-0.19817 3.387387,-0.84736 5.715691,-1.06732 11.392461,-1.07622 l 5.206307,-0.008 0.646806,1.38906 c 1.26606,2.71895 1.625195,4.19526 1.625195,6.68073 0,4.13021 -1.359768,6.54189 -4.498769,7.97897 -2.146173,0.98255 -4.745363,1.13927 -18.98025,1.14445 l -12.911072,0.005 z"
       id="path466"
       inkscape:label="path418"
       sodipodi:nodetypes="csssssscccssscssssscssssccsssccc" /></g></svg>
